<svg version="1.1" xmlns="http://www.w3.org/2000/svg" viewBox="0 0 1095.105773923769 461.9546360667441" width="2190.211547847538" height="923.9092721334882">
  <!-- svg-source:excalidraw -->

  <defs>
    <style class="style-fonts">
      @font-face {
        font-family: "Virgil";
        src: url("https://excalidraw.com/Virgil.woff2");
      }
      @font-face {
        font-family: "Cascadia";
        src: url("https://excalidraw.com/Cascadia.woff2");
      }
      @font-face {
        font-family: "Assistant";
        src: url("https://excalidraw.com/Assistant-Regular.woff2");
      }
    </style>

  </defs>
  <rect x="0" y="0" width="1095.105773923769" height="461.9546360667441" fill="#ffffff"></rect><g stroke-linecap="round" transform="translate(246.96791321332125 176.70430012175365) rotate(0 51.38163725071803 18.33335413640637)"><path d="M9.17 0 C42.07 -2.23, 67.33 1.81, 93.6 0 C103.07 2.73, 104.73 5.39, 102.76 9.17 C103.62 11.41, 99.21 18.74, 102.76 27.5 C102.19 30.34, 97.92 34.1, 93.6 36.67 C68.6 33.82, 44.54 34.33, 9.17 36.67 C6.58 39.01, -0.1 37.11, 0 27.5 C1.42 19.38, 2.83 11.98, 0 9.17 C1.4 -0.38, 1.47 -2.73, 9.17 0" stroke="none" stroke-width="0" fill="#ced4da"></path><path d="M9.17 0 C39.85 -1.71, 69.14 -1.45, 93.6 0 M9.17 0 C41.66 -0.71, 73.05 -1.08, 93.6 0 M93.6 0 C101.27 -0.59, 100.88 1.22, 102.76 9.17 M93.6 0 C98.51 -2.28, 104.82 1.04, 102.76 9.17 M102.76 9.17 C101 11.4, 102.73 15.13, 102.76 27.5 M102.76 9.17 C101.9 12.7, 102.27 17.07, 102.76 27.5 M102.76 27.5 C101.42 35.38, 101.61 37.58, 93.6 36.67 M102.76 27.5 C104.87 33.57, 100.86 37.87, 93.6 36.67 M93.6 36.67 C70.27 36.1, 45.43 37.39, 9.17 36.67 M93.6 36.67 C64.47 36.18, 35.68 36.02, 9.17 36.67 M9.17 36.67 C2.57 38.33, 0.07 32.88, 0 27.5 M9.17 36.67 C3.91 37.18, -0.39 31.86, 0 27.5 M0 27.5 C-1.07 21.28, -1.16 16.63, 0 9.17 M0 27.5 C-0.84 23.83, -0.23 19.71, 0 9.17 M0 9.17 C-0.29 3.99, 2.54 -0.24, 9.17 0 M0 9.17 C1.61 3.21, 2.87 0.93, 9.17 0" stroke="#000000" stroke-width="1" fill="none"></path></g><g stroke-linecap="round" transform="translate(275.4328577935287 135.21302497094104) rotate(0 34.73688152161219 33.53073980211175)"><path d="M24.97 0.26 C30.99 -2.06, 40.04 -1.35, 46.37 1.16 C52.69 3.67, 59.01 9.81, 62.92 15.32 C66.83 20.83, 69.96 27.74, 69.83 34.23 C69.7 40.72, 66.45 49.03, 62.15 54.28 C57.85 59.53, 50.55 64, 44.01 65.73 C37.48 67.45, 29.34 66.82, 22.93 64.64 C16.53 62.46, 9.39 58.1, 5.59 52.64 C1.78 47.18, -0.3 38.45, 0.11 31.87 C0.51 25.3, 3.61 18.51, 8.03 13.18 C12.45 7.86, 22.99 2.08, 26.63 -0.1 C30.27 -2.28, 29.76 -0.59, 29.87 0.12 M51.36 3.29 C56.95 5.8, 61.34 13.93, 64.37 19.61 C67.41 25.28, 70.66 31.13, 69.58 37.34 C68.5 43.54, 62.82 52.18, 57.9 56.84 C52.98 61.49, 46.66 64.34, 40.06 65.27 C33.47 66.19, 24.45 65.34, 18.34 62.4 C12.23 59.45, 6.57 53.42, 3.42 47.61 C0.26 41.8, -1.57 34.05, -0.59 27.54 C0.39 21.03, 4.45 12.84, 9.32 8.56 C14.18 4.29, 21.61 2.74, 28.62 1.9 C35.63 1.07, 47.55 3.03, 51.37 3.55 C55.19 4.07, 52.05 4.73, 51.53 5.02" stroke="none" stroke-width="0" fill="#ced4da"></path><path d="M28.57 1.03 C34.66 -0.77, 43.09 -0.11, 49.08 2.7 C55.07 5.51, 61.19 12.25, 64.5 17.88 C67.81 23.51, 69.8 30.17, 68.94 36.48 C68.09 42.79, 64.09 50.6, 59.36 55.73 C54.64 60.87, 47.24 66.08, 40.58 67.3 C33.91 68.53, 25.44 65.83, 19.37 63.08 C13.3 60.34, 7.5 56.53, 4.16 50.81 C0.81 45.09, -1.54 35.6, -0.7 28.78 C0.15 21.96, 4.09 14.8, 9.2 9.9 C14.32 5, 25.97 1.05, 29.97 -0.62 C33.97 -2.28, 33.09 -0.72, 33.21 -0.09 M34.68 0.72 C41.52 -0.23, 49.75 1.92, 55.31 5.56 C60.87 9.21, 65.9 16.38, 68.04 22.6 C70.17 28.82, 70.19 36.48, 68.14 42.88 C66.09 49.29, 61.08 56.79, 55.73 61.04 C50.39 65.28, 42.62 68.21, 36.05 68.38 C29.48 68.55, 21.83 65.92, 16.33 62.06 C10.83 58.21, 5.69 51.61, 3.06 45.23 C0.43 38.86, -0.97 30.31, 0.55 23.82 C2.07 17.34, 6.8 10.07, 12.19 6.31 C17.58 2.55, 29.36 2.3, 32.89 1.28 C36.41 0.25, 33.16 -0.26, 33.34 0.15" stroke="#000000" stroke-width="1" fill="none"></path></g><g stroke-linecap="round" transform="translate(230.0819291403127 165.60779630235214) rotate(0 24.122834390008506 23.39914935830822)"><path d="M23.04 0.24 C27.95 -0.3, 34.48 1.45, 38.53 4.39 C42.58 7.32, 46.26 12.87, 47.36 17.86 C48.45 22.85, 47.39 29.87, 45.09 34.32 C42.78 38.78, 38.21 42.71, 33.53 44.59 C28.85 46.47, 21.95 47.05, 17 45.6 C12.05 44.15, 6.58 40.11, 3.82 35.88 C1.06 31.65, -0.22 25.09, 0.44 20.19 C1.1 15.29, 3.8 9.85, 7.78 6.48 C11.76 3.11, 21.35 0.9, 24.34 -0.04 C27.32 -0.99, 25.75 0.49, 25.68 0.81 M28.2 1.02 C33.32 1.68, 39.61 4.94, 43.03 8.61 C46.45 12.28, 48.89 17.98, 48.73 23.04 C48.58 28.11, 45.44 35.21, 42.11 38.99 C38.78 42.77, 33.88 44.98, 28.78 45.75 C23.68 46.52, 16.06 46.08, 11.5 43.61 C6.94 41.14, 3.16 35.67, 1.41 30.91 C-0.34 26.15, -0.7 19.77, 1.01 15.05 C2.72 10.34, 7.23 5.14, 11.66 2.61 C16.1 0.08, 24.94 0.3, 27.61 -0.11 C30.27 -0.53, 27.67 -0.47, 27.64 0.11" stroke="none" stroke-width="0" fill="#ced4da"></path><path d="M26.32 -0.08 C31.14 0.11, 37.42 3.84, 41.04 7.36 C44.66 10.88, 47.64 16.16, 48.02 21.05 C48.4 25.94, 46.38 32.45, 43.33 36.69 C40.28 40.93, 34.71 45.26, 29.71 46.49 C24.71 47.72, 17.95 46.23, 13.34 44.08 C8.73 41.92, 4.2 38.12, 2.04 33.57 C-0.12 29.01, -1 21.74, 0.4 16.76 C1.8 11.78, 5.98 6.51, 10.43 3.69 C14.88 0.86, 24.14 0.35, 27.12 -0.18 C30.1 -0.71, 28.33 0.07, 28.3 0.49 M24.32 0.35 C29.42 -0.16, 35.94 2, 39.92 5.15 C43.89 8.29, 47.27 14.29, 48.16 19.24 C49.05 24.19, 47.84 30.41, 45.24 34.84 C42.63 39.28, 37.38 43.94, 32.55 45.83 C27.73 47.73, 21.05 47.9, 16.27 46.23 C11.5 44.56, 6.48 40.22, 3.89 35.82 C1.3 31.42, 0.05 24.89, 0.72 19.82 C1.38 14.76, 4.13 8.83, 7.87 5.44 C11.6 2.06, 20.54 0.25, 23.13 -0.47 C25.73 -1.2, 23.34 0.67, 23.43 1.1" stroke="#000000" stroke-width="1" fill="none"></path></g><g stroke-linecap="round" transform="translate(256.13459028151806 146.79198547814536) rotate(0 16.559398007418167 14.885644421280603)"><path d="M14.06 -0.33 C17.32 -1.04, 22.12 0.01, 25.1 1.81 C28.07 3.61, 30.75 7.42, 31.91 10.47 C33.08 13.52, 33.33 17.19, 32.07 20.11 C30.82 23.02, 27.56 26.42, 24.4 27.96 C21.23 29.51, 16.52 30.04, 13.07 29.35 C9.62 28.67, 5.87 26.3, 3.68 23.85 C1.5 21.39, -0.16 17.8, -0.05 14.63 C0.07 11.45, 1.86 7.19, 4.36 4.82 C6.85 2.45, 13.18 1.22, 14.92 0.4 C16.66 -0.42, 14.71 -0.19, 14.77 -0.08 M13.84 0.7 C17.17 -0.22, 22.05 0.09, 24.96 1.66 C27.88 3.24, 30.09 7.27, 31.35 10.15 C32.61 13.04, 33.66 16.09, 32.52 18.97 C31.37 21.85, 27.54 25.77, 24.45 27.43 C21.36 29.09, 17.42 29.46, 13.97 28.92 C10.53 28.39, 6.14 26.58, 3.77 24.2 C1.41 21.82, -0.1 17.8, -0.21 14.63 C-0.32 11.46, 0.93 7.67, 3.11 5.17 C5.3 2.67, 11.24 0.26, 12.89 -0.38 C14.55 -1.02, 12.87 0.97, 13.07 1.32" stroke="none" stroke-width="0" fill="#ced4da"></path><path d="M17.84 0.45 C21.2 0.5, 25.73 1.79, 28.19 3.95 C30.65 6.11, 32.37 10.08, 32.6 13.41 C32.84 16.75, 31.62 21.37, 29.57 23.94 C27.53 26.51, 23.69 28.02, 20.31 28.83 C16.94 29.63, 12.54 30.13, 9.32 28.77 C6.11 27.41, 2.5 23.71, 1.05 20.67 C-0.41 17.62, -0.35 13.57, 0.6 10.5 C1.54 7.42, 3.69 4.01, 6.73 2.23 C9.77 0.44, 16.67 0.09, 18.85 -0.21 C21.03 -0.5, 19.81 0.2, 19.8 0.46 M20.88 0.35 C24.15 0.84, 28.07 3.68, 30.1 6.25 C32.13 8.82, 33.35 12.53, 33.07 15.76 C32.79 18.98, 30.85 23.17, 28.44 25.6 C26.02 28.02, 21.99 29.97, 18.59 30.32 C15.19 30.68, 10.92 29.55, 8.02 27.71 C5.12 25.88, 2.37 22.47, 1.19 19.32 C0 16.16, -0.3 11.82, 0.92 8.79 C2.13 5.77, 5.3 2.48, 8.48 1.18 C11.66 -0.12, 18.06 1.12, 20.01 0.99 C21.95 0.85, 20.13 0.21, 20.14 0.38" stroke="#000000" stroke-width="1" fill="none"></path></g><g stroke-linecap="round" transform="translate(321.74869982234736 174.77447337055486) rotate(0 20.504409231507225 19.29826751200676)"><path d="M22.41 -0.39 C26.57 -0.11, 31.76 3.05, 34.89 6.05 C38.01 9.05, 40.78 13.5, 41.16 17.59 C41.55 21.68, 39.81 27.2, 37.19 30.6 C34.57 33.99, 29.69 36.99, 25.44 37.97 C21.18 38.95, 15.63 38.24, 11.67 36.48 C7.72 34.72, 3.48 31.19, 1.68 27.42 C-0.12 23.66, -0.42 17.84, 0.85 13.86 C2.12 9.88, 5.62 5.91, 9.31 3.56 C13 1.21, 20.52 0.32, 23.01 -0.25 C25.5 -0.81, 24.3 -0.24, 24.24 0.17 M25.74 0.37 C29.66 1.09, 33.76 5.26, 36.34 8.5 C38.92 11.73, 41.51 15.8, 41.23 19.78 C40.95 23.77, 37.74 29.4, 34.66 32.4 C31.58 35.4, 27.05 37.37, 22.75 37.79 C18.44 38.2, 12.53 37.14, 8.85 34.88 C5.16 32.61, 1.92 28.13, 0.64 24.19 C-0.64 20.24, -0.53 15, 1.19 11.2 C2.9 7.4, 6.97 3.03, 10.94 1.37 C14.9 -0.29, 22.52 1.34, 24.98 1.26 C27.43 1.18, 25.56 0.62, 25.65 0.88" stroke="none" stroke-width="0" fill="#ced4da"></path><path d="M18.5 -0.39 C22.6 -1.1, 28.2 0.68, 31.75 3.19 C35.3 5.71, 38.64 10.73, 39.8 14.69 C40.95 18.65, 40.46 23.19, 38.68 26.94 C36.89 30.69, 33.06 35.42, 29.08 37.19 C25.1 38.95, 19.02 38.73, 14.8 37.52 C10.58 36.32, 6.28 33.34, 3.75 29.96 C1.23 26.59, -0.66 21.37, -0.34 17.26 C-0.02 13.15, 2.44 8.21, 5.7 5.31 C8.96 2.41, 16.79 0.72, 19.22 -0.16 C21.65 -1.04, 20.12 -0.38, 20.26 0.05 M23.22 0.52 C27.27 0.75, 32.45 3.17, 35.36 6.21 C38.27 9.25, 40.42 14.55, 40.67 18.76 C40.93 22.97, 39.39 28.2, 36.89 31.46 C34.39 34.73, 29.86 37.51, 25.67 38.36 C21.49 39.21, 15.83 38.51, 11.78 36.56 C7.72 34.6, 3.23 30.5, 1.33 26.62 C-0.57 22.75, -0.91 17.12, 0.37 13.32 C1.65 9.52, 5.27 6.07, 9.02 3.82 C12.77 1.58, 20.53 0.37, 22.87 -0.15 C25.21 -0.67, 23.14 0.41, 23.07 0.68" stroke="#000000" stroke-width="1" fill="none"></path></g><g stroke-linecap="round" transform="translate(236.21655701826398 171.53760976285565) rotate(0 21.245712417459913 20.676630834849334)"><path d="M15.95 0.65 C20.19 -0.56, 26.85 -0.19, 31.01 1.77 C35.17 3.73, 39.14 8.28, 40.92 12.41 C42.69 16.54, 42.94 22.32, 41.64 26.56 C40.34 30.8, 36.95 35.34, 33.13 37.84 C29.3 40.34, 23.24 42.07, 18.69 41.56 C14.13 41.05, 8.88 38.04, 5.81 34.8 C2.73 31.57, 0.56 26.64, 0.24 22.16 C-0.08 17.67, 1.03 11.57, 3.88 7.87 C6.72 4.16, 15.07 1.11, 17.3 -0.07 C19.53 -1.25, 17.15 0.3, 17.24 0.79 M23.51 0.9 C27.79 1.13, 34.21 3, 37.25 6.14 C40.28 9.27, 41.62 15.31, 41.73 19.73 C41.84 24.15, 40.64 29.23, 37.91 32.67 C35.18 36.11, 29.82 39.41, 25.36 40.35 C20.89 41.3, 15.16 40.39, 11.12 38.34 C7.07 36.28, 2.82 32.16, 1.08 28.05 C-0.67 23.94, -0.79 17.7, 0.64 13.68 C2.07 9.65, 5.65 6.16, 9.65 3.91 C13.65 1.66, 22.1 0.65, 24.62 0.17 C27.15 -0.31, 24.98 0.78, 24.81 1.01" stroke="none" stroke-width="0" fill="#ced4da"></path><path d="M24.9 0.13 C29.14 0.84, 34.45 4.74, 37.3 8.16 C40.16 11.58, 42.08 16.22, 42.05 20.64 C42.01 25.07, 40.09 31.38, 37.09 34.71 C34.09 38.05, 28.51 40.14, 24.04 40.68 C19.57 41.21, 14.14 40.2, 10.25 37.91 C6.37 35.62, 2.24 31.11, 0.72 26.93 C-0.79 22.75, -0.5 16.91, 1.17 12.82 C2.84 8.73, 6.64 4.49, 10.75 2.38 C14.86 0.27, 23.19 0.31, 25.85 0.17 C28.52 0.02, 26.8 1.03, 26.77 1.5 M21.13 0.18 C25.34 -0.06, 31.05 2.49, 34.54 5.41 C38.03 8.32, 41.14 13.37, 42.07 17.68 C42.99 21.98, 42.26 27.5, 40.08 31.24 C37.91 34.97, 33.42 38.65, 29.03 40.07 C24.63 41.5, 18.13 41.36, 13.7 39.78 C9.26 38.2, 4.68 34.27, 2.41 30.61 C0.15 26.94, -0.73 22.12, 0.12 17.79 C0.98 13.46, 4 7.55, 7.55 4.62 C11.1 1.68, 19.19 0.96, 21.44 0.17 C23.69 -0.63, 21.15 -0.46, 21.03 -0.16" stroke="#ced4da" stroke-width="1" fill="none"></path></g><g stroke-linecap="round" transform="translate(293.5041030010573 155.6033254497608) rotate(0 25.60867121747401 27.505609826175743)"><path d="M13.73 2.49 C18.34 -0.57, 25.62 -0.96, 30.95 0.32 C36.29 1.61, 42.26 5.59, 45.72 10.18 C49.17 14.78, 51.85 21.87, 51.68 27.9 C51.51 33.93, 48.4 41.93, 44.71 46.38 C41.02 50.83, 34.86 53.75, 29.52 54.62 C24.19 55.49, 17.5 54.81, 12.69 51.61 C7.87 48.41, 2.36 41.28, 0.65 35.42 C-1.06 29.57, 0.23 21.94, 2.42 16.5 C4.61 11.06, 11.36 5.01, 13.79 2.81 C16.22 0.62, 16.59 2.83, 17 3.33 M23.54 -1.17 C28.65 -2.37, 34.1 1.14, 38.51 4.45 C42.93 7.75, 48.39 13.11, 50.01 18.66 C51.63 24.2, 50.5 32.32, 48.22 37.71 C45.94 43.11, 41.3 48.41, 36.32 51.01 C31.34 53.61, 23.7 54.76, 18.33 53.3 C12.95 51.84, 7.21 46.63, 4.07 42.24 C0.94 37.85, -1.18 32.62, -0.48 26.96 C0.21 21.3, 4.07 12.62, 8.23 8.28 C12.39 3.95, 22.1 2.45, 24.48 0.96 C26.86 -0.52, 22.63 -0.81, 22.53 -0.61" stroke="none" stroke-width="0" fill="#ced4da"></path><path d="M13.01 3.88 C17.51 0.97, 25.05 -1.53, 30.51 -0.21 C35.97 1.11, 42.48 7.1, 45.77 11.82 C49.06 16.54, 50.49 22.51, 50.25 28.1 C50.01 33.69, 48.07 41.06, 44.34 45.37 C40.61 49.68, 33.43 53.24, 27.89 53.98 C22.35 54.71, 15.67 52.93, 11.12 49.79 C6.58 46.66, 2.14 40.78, 0.61 35.16 C-0.92 29.54, -0.96 21.52, 1.96 16.07 C4.88 10.62, 14.92 4.81, 18.12 2.46 C21.33 0.12, 21.2 1.62, 21.19 1.98 M31.62 2.18 C36.72 3.45, 43.02 8.35, 46.41 13.06 C49.79 17.78, 52.22 24.83, 51.91 30.47 C51.61 36.12, 48.73 42.98, 44.6 46.93 C40.47 50.88, 32.9 53.83, 27.14 54.19 C21.37 54.55, 14.42 52.14, 9.98 49.09 C5.55 46.04, 1.77 41.51, 0.51 35.89 C-0.75 30.27, -0.02 20.84, 2.45 15.35 C4.92 9.85, 10.41 5.51, 15.33 2.92 C20.25 0.32, 29.31 0.06, 31.96 -0.21 C34.62 -0.48, 31.25 0.83, 31.29 1.31" stroke="#ced4da" stroke-width="1" fill="none"></path></g><g stroke-linecap="round" transform="translate(311.33532592284996 174.95209925851685) rotate(0 24.47050805225291 18.779692226147546)"><path d="M25.83 -0.08 C30.8 -0.07, 37.3 2.2, 41.16 4.94 C45.02 7.67, 48.35 12.25, 48.98 16.31 C49.62 20.37, 47.85 25.92, 44.97 29.31 C42.09 32.71, 36.69 35.5, 31.72 36.68 C26.76 37.86, 20.07 38.02, 15.17 36.39 C10.28 34.77, 4.72 30.63, 2.35 26.92 C-0.02 23.2, -0.21 17.95, 0.94 14.11 C2.1 10.27, 5.01 6.16, 9.29 3.88 C13.57 1.6, 23.69 0.94, 26.61 0.42 C29.53 -0.1, 26.95 0.59, 26.83 0.77 M29.44 0.36 C34.29 1.02, 40.84 3.76, 44.02 6.93 C47.2 10.1, 48.86 15.37, 48.52 19.39 C48.19 23.42, 45.63 28.14, 42 31.08 C38.37 34.01, 31.98 36.56, 26.74 37 C21.5 37.45, 14.91 35.79, 10.58 33.76 C6.24 31.74, 2.07 28.59, 0.73 24.84 C-0.61 21.1, 0.26 15.01, 2.52 11.27 C4.78 7.52, 9.72 4.28, 14.28 2.38 C18.85 0.48, 27.23 0.18, 29.91 -0.13 C32.59 -0.44, 30.31 0.2, 30.37 0.52" stroke="none" stroke-width="0" fill="#ced4da"></path><path d="M20.87 -0.3 C25.82 -1.04, 33.08 1.21, 37.49 3.38 C41.91 5.55, 45.75 9.03, 47.35 12.72 C48.95 16.41, 49.08 21.81, 47.07 25.53 C45.07 29.25, 40.03 33.17, 35.33 35.03 C30.64 36.9, 23.98 37.56, 18.89 36.72 C13.79 35.89, 7.94 33.2, 4.79 30.01 C1.64 26.83, -0.37 21.51, -0.02 17.6 C0.33 13.69, 3.22 9.39, 6.89 6.55 C10.55 3.72, 19.42 1.55, 21.97 0.57 C24.53 -0.4, 22.18 0.47, 22.23 0.71 M25.86 0.71 C30.97 0.64, 37.81 2.79, 41.7 5.44 C45.59 8.1, 48.74 12.75, 49.22 16.63 C49.69 20.52, 47.57 25.5, 44.53 28.78 C41.48 32.05, 35.96 34.99, 30.96 36.3 C25.97 37.61, 19.27 38.2, 14.55 36.63 C9.82 35.06, 4.87 30.57, 2.61 26.9 C0.34 23.22, -0.24 18.54, 0.95 14.58 C2.15 10.61, 5.67 5.56, 9.77 3.12 C13.87 0.68, 22.8 0.48, 25.55 -0.04 C28.29 -0.57, 26.32 -0.28, 26.24 -0.04" stroke="#ced4da" stroke-width="1" fill="none"></path></g><g stroke-linecap="round" transform="translate(268.4645133661895 148.39495873669267) rotate(0 20.486936973979198 20.676630834849362)"><path d="M16.08 0.42 C20.11 -0.75, 26.28 0.08, 30.16 2.2 C34.04 4.31, 37.69 8.99, 39.35 13.09 C41 17.2, 41.34 22.61, 40.07 26.83 C38.8 31.05, 35.48 36.09, 31.72 38.41 C27.95 40.73, 21.82 41.45, 17.49 40.74 C13.16 40.04, 8.71 37.35, 5.73 34.17 C2.75 30.99, -0.2 25.95, -0.38 21.67 C-0.55 17.39, 1.73 12, 4.69 8.49 C7.64 4.98, 15.11 2.01, 17.34 0.62 C19.57 -0.78, 17.97 -0.18, 18.06 0.13 M15.93 -0.19 C20 -1.42, 25.69 -0.25, 29.57 1.8 C33.45 3.85, 37.54 8.02, 39.2 12.13 C40.86 16.24, 40.88 22.24, 39.53 26.45 C38.18 30.67, 34.78 34.86, 31.12 37.44 C27.45 40.01, 21.75 42.38, 17.54 41.91 C13.34 41.44, 8.67 37.95, 5.88 34.63 C3.08 31.31, 1.07 26.53, 0.75 22 C0.43 17.46, 1.36 11.09, 3.96 7.44 C6.55 3.8, 14.21 1.31, 16.34 0.12 C18.48 -1.06, 16.68 0.05, 16.75 0.32" stroke="none" stroke-width="0" fill="#ced4da"></path><path d="M24.88 0.94 C29 1.62, 33.66 4.36, 36.34 7.75 C39.02 11.13, 41.16 16.81, 40.96 21.23 C40.75 25.66, 38.13 31.05, 35.11 34.31 C32.08 37.57, 27.12 40.21, 22.79 40.8 C18.46 41.4, 12.79 40.26, 9.14 37.87 C5.48 35.48, 2.06 30.58, 0.87 26.45 C-0.31 22.33, 0.3 17.09, 2.04 13.14 C3.79 9.19, 7.46 4.79, 11.35 2.74 C15.24 0.69, 22.95 1.13, 25.37 0.85 C27.79 0.57, 25.94 0.81, 25.88 1.07 M25.1 0.74 C29.32 1.23, 34.45 4.53, 37.04 7.91 C39.62 11.28, 40.9 16.65, 40.6 21 C40.31 25.35, 38.17 30.54, 35.27 34 C32.36 37.46, 27.46 41.11, 23.2 41.77 C18.94 42.43, 13.35 40.37, 9.7 37.96 C6.05 35.54, 2.69 31.53, 1.3 27.27 C-0.09 23.01, -0.17 16.55, 1.35 12.4 C2.87 8.25, 6.48 4.43, 10.43 2.36 C14.38 0.3, 22.78 0.33, 25.03 0 C27.28 -0.34, 24.18 0.06, 23.93 0.36" stroke="#ced4da" stroke-width="1" fill="none"></path></g><g stroke-linecap="round" transform="translate(251.01267816614313 159.01781494542246) rotate(0 28.26438526965643 25.798365078344148)"><path d="M25.71 -0.11 C31.36 -0.86, 38.93 1.97, 43.89 5.07 C48.86 8.18, 53.71 13.25, 55.48 18.55 C57.25 23.84, 57.09 31.93, 54.52 36.85 C51.94 41.77, 45.42 45.92, 40.03 48.09 C34.63 50.25, 28.05 51.02, 22.16 49.86 C16.26 48.7, 8.17 45.32, 4.64 41.15 C1.11 36.97, 0.37 30.25, 1 24.82 C1.63 19.39, 3.9 12.85, 8.43 8.57 C12.96 4.3, 24.19 0.42, 28.18 -0.83 C32.18 -2.09, 32.52 0.63, 32.4 1.03 M24.59 -0.93 C30.24 -1.79, 38.68 0.04, 43.66 3.16 C48.63 6.29, 52.84 12.54, 54.44 17.84 C56.05 23.13, 55.71 29.52, 53.31 34.96 C50.92 40.4, 45.24 47.82, 40.08 50.46 C34.93 53.1, 27.92 52.23, 22.38 50.78 C16.84 49.33, 10.65 46.45, 6.84 41.77 C3.03 37.08, -0.76 28.45, -0.48 22.68 C-0.2 16.9, 4.03 11.08, 8.54 7.13 C13.05 3.18, 23.66 0.31, 26.56 -1 C29.47 -2.32, 26.24 -1.21, 25.97 -0.78" stroke="none" stroke-width="0" fill="#ced4da"></path><path d="M14.79 1.82 C19.84 -1.1, 29.05 -1.49, 34.95 -0.18 C40.85 1.13, 46.71 5.2, 50.21 9.68 C53.71 14.15, 56.28 21.08, 55.95 26.67 C55.61 32.27, 52.32 39.23, 48.21 43.24 C44.1 47.26, 37.09 49.94, 31.3 50.77 C25.51 51.6, 18.43 51.02, 13.48 48.22 C8.53 45.43, 3.45 39.35, 1.6 33.97 C-0.26 28.59, -0.31 21.27, 2.36 15.95 C5.03 10.63, 14.86 4.44, 17.62 2.06 C20.39 -0.32, 18.71 1.29, 18.95 1.67 M41.4 2.55 C46.49 4.31, 51.12 9.6, 53.31 14.48 C55.5 19.36, 56.1 26.19, 54.52 31.83 C52.94 37.48, 48.65 45.19, 43.81 48.37 C38.97 51.55, 31.37 51.62, 25.5 50.92 C19.62 50.21, 12.86 48.2, 8.58 44.14 C4.31 40.08, 0.5 32.17, -0.18 26.57 C-0.86 20.98, 0.83 15.02, 4.52 10.58 C8.21 6.13, 16.18 1.4, 21.95 -0.1 C27.72 -1.6, 36.34 1.28, 39.15 1.59 C41.96 1.9, 38.72 1.1, 38.79 1.75" stroke="#ced4da" stroke-width="1" fill="none"></path></g><g transform="translate(261.17091389838447 178.34574395949738) rotate(0 35.248809814453125 13.85727898952905)"><text x="35.248809814453125" y="20.03659895374867" font-family="Virgil, Segoe UI Emoji" font-size="20.529302206709755px" fill="#000000" text-anchor="middle" style="white-space: pre;" direction="ltr" dominant-baseline="alphabetic">OpenAI</text></g><g transform="translate(287.6408140041168 222.713384316847) rotate(0 11.5 12.5)"><text x="0" y="17.52" font-family="Virgil, Segoe UI Emoji" font-size="20px" fill="#1e1e1e" text-anchor="start" style="white-space: pre;" direction="ltr" dominant-baseline="alphabetic">🤖</text></g><g stroke-linecap="round" transform="translate(10 300.4324080000663) rotate(0 106.38559487980928 75.76111403333891)"><path d="M0.8 -1.15 L212.25 -0.82 L211.48 152.78 L1.42 153.52" stroke="none" stroke-width="0" fill="#eeeeee"></path><path d="M0 0 C69.99 -0.46, 138.77 -1.65, 212.77 0 M0 0 C59.92 0.1, 118.53 1.07, 212.77 0 M212.77 0 C212.28 42.06, 214.29 87.21, 212.77 151.52 M212.77 0 C214.85 34.2, 214.36 69.37, 212.77 151.52 M212.77 151.52 C145.08 150.44, 75.88 152.07, 0 151.52 M212.77 151.52 C131.1 151.23, 51.64 149.54, 0 151.52 M0 151.52 C0.89 100.76, -2.1 47.54, 0 0 M0 151.52 C1.54 106.03, 0.97 62.17, 0 0" stroke="#000000" stroke-width="1" fill="none"></path></g><g transform="translate(108.25357583684058 363.8273125460229) rotate(0 8.13201904296875 12.366209487382378)"><text x="8.13201904296875" y="17.33247921751516" font-family="Virgil, Segoe UI Emoji" font-size="19.785935179811826px" fill="#1e1e1e" text-anchor="middle" style="white-space: pre;" direction="ltr" dominant-baseline="alphabetic">...</text></g><g transform="translate(29.604319987300414 314.8518765950323) rotate(0 86.93000030517578 12.5)"><text x="0" y="17.52" font-family="Virgil, Segoe UI Emoji" font-size="20px" fill="#1e1e1e" text-anchor="start" style="white-space: pre;" direction="ltr" dominant-baseline="alphabetic">📚 Material_1.pdf</text></g><g transform="translate(31.03442315558891 346.7000904776139) rotate(0 91.34000396728516 12.5)"><text x="0" y="17.52" font-family="Virgil, Segoe UI Emoji" font-size="20px" fill="#1e1e1e" text-anchor="start" style="white-space: pre;" direction="ltr" dominant-baseline="alphabetic">📚 Material_2.pdf</text></g><g transform="translate(28.22581469022191 408.16244059561313) rotate(0 90.66000366210938 12.5)"><text x="0" y="17.52" font-family="Virgil, Segoe UI Emoji" font-size="20px" fill="#1e1e1e" text-anchor="start" style="white-space: pre;" direction="ltr" dominant-baseline="alphabetic">📚 Material_N.pdf</text></g><g stroke-linecap="round"><g transform="translate(125.1315922861395 281.77503482295674) rotate(0 50.76650371306363 -43.11928297369809)"><path d="M-1.11 -0.55 C3.51 -11.32, 9.95 -50.48, 26.98 -64.89 C44 -79.3, 88.46 -83.34, 101.04 -87.01 M0.51 1.78 C5.1 -9.29, 9.89 -51.91, 26.47 -66.56 C43.06 -81.2, 87.23 -82.83, 100.02 -86.1" stroke="#1e1e1e" stroke-width="2" fill="none"></path></g><g transform="translate(125.1315922861395 281.77503482295674) rotate(0 50.76650371306363 -43.11928297369809)"><path d="M78.14 -74 C82.52 -75.29, 90.12 -80.44, 100.02 -86.1 M78.14 -74 C83.68 -76.82, 88.89 -78.74, 100.02 -86.1" stroke="#1e1e1e" stroke-width="2" fill="none"></path></g><g transform="translate(125.1315922861395 281.77503482295674) rotate(0 50.76650371306363 -43.11928297369809)"><path d="M75.48 -90.89 C80.46 -88.1, 88.7 -89.19, 100.02 -86.1 M75.48 -90.89 C81.78 -89.73, 87.61 -87.66, 100.02 -86.1" stroke="#1e1e1e" stroke-width="2" fill="none"></path></g></g><mask></mask><g stroke-linecap="round" transform="translate(995.1669268885013 152.93978898303328) rotate(0 22.084879712901852 20.32702338216245)"><path d="M23.06 0.23 C27.61 0.08, 33.48 1.96, 37.02 4.77 C40.57 7.57, 43.68 12.71, 44.33 17.06 C44.98 21.42, 43.5 27.12, 40.91 30.88 C38.33 34.64, 33.35 38.22, 28.8 39.63 C24.26 41.04, 17.98 40.93, 13.65 39.37 C9.32 37.81, 5.05 34.07, 2.83 30.27 C0.62 26.46, -0.52 20.92, 0.36 16.54 C1.23 12.16, 4.27 6.74, 8.09 3.99 C11.91 1.24, 20.52 0.56, 23.26 0.06 C25.99 -0.44, 24.53 0.64, 24.49 0.98 M25.2 0.28 C29.68 0.68, 36.05 3.32, 39.09 6.61 C42.13 9.91, 43.31 15.63, 43.43 20.05 C43.55 24.47, 42.55 29.68, 39.81 33.13 C37.06 36.58, 31.74 39.8, 26.95 40.74 C22.16 41.69, 15.29 40.86, 11.05 38.81 C6.81 36.76, 3.18 32.53, 1.49 28.45 C-0.2 24.38, -0.61 18.51, 0.9 14.35 C2.41 10.2, 6.52 5.98, 10.54 3.51 C14.55 1.04, 22.5 -0.06, 24.99 -0.46 C27.48 -0.86, 25.39 0.76, 25.48 1.1" stroke="#000000" stroke-width="2" fill="none"></path></g><g stroke-linecap="round"><g transform="translate(1015.4334711603184 193.36767124387296) rotate(0 -1.0836667262441324 24.643077690695662)"><path d="M0.07 -0.08 C-0.4 8.23, -2.14 41.37, -2.47 49.64 M-0.57 -0.59 C-0.88 7.58, -1.12 40.65, -1.39 48.85" stroke="#000000" stroke-width="2" fill="none"></path></g></g><mask></mask><g stroke-linecap="round"><g transform="translate(1012.8493013785297 244.63152516118976) rotate(0 9.755068602468214 15.028637594686586)"><path d="M-0.66 0.77 C2.66 5.9, 16.83 25.61, 20.04 30.64 M1.2 0.13 C4.39 4.92, 16.07 23.99, 19.37 28.83" stroke="#000000" stroke-width="2" fill="none"></path></g></g><mask></mask><g stroke-linecap="round"><g transform="translate(1012.2417240724996 243.76979406836858) rotate(0 -9.39167304544867 12.866559854730383)"><path d="M0.53 0.59 C-2.64 4.9, -16.35 22.46, -19.71 26.67 M-0.65 -0.15 C-3.39 3.77, -14.74 20.48, -17.48 25.03" stroke="#000000" stroke-width="2" fill="none"></path></g></g><mask></mask><g stroke-linecap="round"><g transform="translate(995.9008810341799 203.05591344982753) rotate(0 9.475879655821359 9.095355461873083)"><path d="M-0.92 0.93 C2.02 3.88, 14.9 15.49, 18.16 18.28 M0.8 0.38 C4.07 3.49, 17.63 16.81, 20.46 19.87" stroke="#000000" stroke-width="2" fill="none"></path></g></g><mask></mask><g stroke-linecap="round"><g transform="translate(1016.4015051971652 221.37953071024998) rotate(0 13.655441590438386 -7.701478794910258)"><path d="M-0.79 0.09 C3.86 -2.72, 22.33 -13.23, 27.01 -15.92 M0.99 -0.91 C5.54 -3.64, 21.65 -12.29, 25.91 -14.65" stroke="#000000" stroke-width="2" fill="none"></path></g></g><mask></mask><g stroke-linecap="round"><g transform="translate(988.0860185097514 156.79583461785376) rotate(0 31.730823847433953 6.455614592500893)"><path d="M-0.3 -0.52 C10.41 1.51, 52.78 9.95, 63.47 12.27 M1.74 1.83 C12.37 4, 52.28 11.89, 62.53 13.47" stroke="#000000" stroke-width="2" fill="none"></path></g></g><mask></mask><g stroke-linecap="round" transform="translate(1008.2840541002694 115.54896985227549) rotate(10.74366233694554 16.35750011333016 22.990451630855887)"><path d="M0.35 -0.93 L32.63 0.76 L32.63 45.9 L-0.71 46.2" stroke="none" stroke-width="0" fill="#fff"></path><path d="M0 0 C8.46 0.31, 18.38 0.6, 32.72 0 M0 0 C8.76 -0.15, 18.3 0.37, 32.72 0 M32.72 0 C33.14 18.93, 31.85 36.19, 32.72 45.98 M32.72 0 C32.38 14.42, 33.14 28.55, 32.72 45.98 M32.72 45.98 C21.89 45.78, 10.33 45.57, 0 45.98 M32.72 45.98 C20.82 45.64, 9.49 46.41, 0 45.98 M0 45.98 C-0.66 28.74, 0.13 11.34, 0 0 M0 45.98 C0.02 35.39, 0.55 24.46, 0 0" stroke="#000000" stroke-width="2" fill="none"></path></g><g stroke-linecap="round"><g transform="translate(1017.4587461587431 182.1258624899471) rotate(0 0.7898335824609148 4.417686615041561)" fill-rule="evenodd"><path d="M-1.76 1.95 C0.65 3.03, 11.93 7.3, 15.85 8.12 C19.77 8.94, 19.81 7.62, 21.76 6.87 C23.7 6.12, 27.32 3.44, 27.5 3.62 C27.69 3.81, 24.67 6.53, 22.84 7.96 C21.02 9.4, 20.12 12.79, 16.56 12.22 C13 11.65, 7.16 5.47, 1.48 4.54 C-4.21 3.62, -12.82 7.75, -17.52 6.67 C-22.23 5.59, -26.53 -1.19, -26.73 -1.94 C-26.92 -2.7, -22.77 1.89, -18.68 2.12 C-14.6 2.35, -5.16 -0.22, -2.2 -0.56" stroke="none" stroke-width="0" fill="#000" fill-rule="evenodd"></path><path d="M0.37 0.46 C3.17 1.54, 12.96 5.09, 16.78 5.8 C20.6 6.51, 21.67 5.46, 23.29 4.73 C24.9 4, 26.37 0.41, 26.47 1.42 C26.57 2.43, 25.48 9.41, 23.89 10.81 C22.3 12.21, 20.91 10.42, 16.91 9.83 C12.92 9.23, 5.33 7.56, -0.09 7.24 C-5.5 6.91, -11.26 9.38, -15.57 7.89 C-19.88 6.4, -25.95 -0.96, -25.97 -1.69 C-25.99 -2.43, -19.82 3.12, -15.69 3.48 C-11.56 3.85, -3.89 1.02, -1.17 0.49 M-0.89 -0.34 C1.81 0.97, 12.24 6.21, 16.22 7.21 C20.19 8.21, 21.27 6.49, 22.94 5.66 C24.61 4.83, 26.32 1.23, 26.23 2.21 C26.15 3.19, 24.27 9.9, 22.44 11.53 C20.61 13.17, 18.9 12.9, 15.26 12.02 C11.62 11.14, 5.83 7.08, 0.6 6.26 C-4.63 5.44, -12 8.65, -16.11 7.1 C-20.22 5.56, -23.72 -2.31, -24.06 -3.02 C-24.4 -3.73, -21.93 2.07, -18.17 2.86 C-14.4 3.65, -4.42 2.2, -1.46 1.73" stroke="#000000" stroke-width="1" fill="none"></path></g></g><mask></mask><g stroke-linecap="round" transform="translate(999.9586442656833 165.45933289157585) rotate(0 7.2351621642319515 5.761438751069534)"><path d="M8.19 0.1 C9.76 0.36, 12.02 1.56, 13.01 2.5 C14 3.45, 14.12 4.53, 14.13 5.75 C14.15 6.97, 14.09 8.88, 13.1 9.82 C12.11 10.76, 9.75 11.15, 8.18 11.36 C6.62 11.58, 5.02 11.78, 3.71 11.1 C2.39 10.42, 0.83 8.45, 0.31 7.28 C-0.2 6.12, 0.06 5.13, 0.62 4.1 C1.19 3.06, 2.29 1.79, 3.7 1.07 C5.11 0.34, 8.12 -0.1, 9.07 -0.24 C10.02 -0.37, 9.4 0.12, 9.39 0.25 M7.96 -0.62 C9.47 -0.52, 11.7 1.48, 12.87 2.41 C14.04 3.34, 15.01 3.92, 14.97 4.97 C14.92 6.02, 13.69 7.63, 12.6 8.69 C11.52 9.75, 10.01 11.09, 8.43 11.36 C6.86 11.63, 4.57 10.92, 3.14 10.32 C1.71 9.71, 0.35 8.78, -0.16 7.73 C-0.67 6.67, -0.6 5.21, 0.08 3.99 C0.77 2.77, 2.53 1.17, 3.94 0.4 C5.34 -0.37, 7.82 -0.7, 8.53 -0.64 C9.24 -0.58, 8.25 0.54, 8.18 0.74" stroke="#000000" stroke-width="1" fill="none"></path></g><g stroke-linecap="round" transform="translate(1006.5249304631831 170.00396798001077) rotate(0 0.3774867216120583 0.49568963444014)"><path d="M0.51 0.32 C0.57 0.3, 0.29 0.05, 0.36 0.1 C0.43 0.15, 0.91 0.51, 0.93 0.61 C0.95 0.7, 0.55 0.55, 0.49 0.64 C0.43 0.74, 0.63 1.15, 0.58 1.16 C0.53 1.16, 0.26 0.69, 0.2 0.66 C0.14 0.63, 0.23 0.98, 0.21 0.98 C0.19 0.98, 0.07 0.83, 0.08 0.66 C0.1 0.48, 0.24 0.03, 0.32 -0.08 C0.41 -0.19, 0.55 -0.02, 0.6 -0.03 C0.65 -0.03, 0.64 -0.1, 0.62 -0.09 M0.58 0.33 C0.75 0.34, 0.99 -0.21, 0.98 -0.25 C0.98 -0.3, 0.63 -0.13, 0.54 0.04 C0.46 0.21, 0.58 0.66, 0.5 0.76 C0.41 0.86, 0.14 0.62, 0.02 0.63 C-0.1 0.64, -0.21 0.81, -0.24 0.83 C-0.27 0.84, -0.25 0.84, -0.15 0.71 C-0.05 0.58, 0.27 0.23, 0.36 0.05 C0.44 -0.14, 0.34 -0.44, 0.34 -0.38 C0.35 -0.33, 0.37 0.32, 0.37 0.38 C0.38 0.44, 0.43 0.01, 0.38 -0.03" stroke="#000000" stroke-width="1" fill="none"></path></g><g stroke-linecap="round" transform="translate(1026.386832815489 171.71600371742318) rotate(0 0.38129971880005087 0.6482095219601831)"><path d="M0.16 0.02 C0.24 0, 0.76 0.33, 0.82 0.41 C0.88 0.49, 0.53 0.37, 0.52 0.5 C0.51 0.63, 0.76 1.12, 0.74 1.2 C0.72 1.27, 0.48 0.89, 0.42 0.93 C0.36 0.97, 0.43 1.4, 0.38 1.44 C0.34 1.47, 0.16 1.34, 0.13 1.15 C0.11 0.96, 0.19 0.46, 0.23 0.29 C0.28 0.12, 0.33 0.19, 0.4 0.12 C0.48 0.06, 0.64 -0.08, 0.67 -0.1 C0.7 -0.11, 0.6 0.02, 0.58 0.03 M0.66 -0.4 C0.67 -0.55, 0.39 -0.46, 0.37 -0.33 C0.35 -0.19, 0.57 0.27, 0.56 0.41 C0.54 0.56, 0.36 0.42, 0.29 0.54 C0.21 0.65, 0.14 0.98, 0.11 1.1 C0.09 1.23, 0.07 1.36, 0.12 1.3 C0.17 1.24, 0.41 0.93, 0.42 0.74 C0.43 0.55, 0.24 0.19, 0.18 0.17 C0.11 0.14, 0.03 0.63, 0.05 0.6 C0.07 0.57, 0.3 0.05, 0.28 -0.03 C0.27 -0.11, 0.01 0.03, -0.03 0.13" stroke="#000000" stroke-width="1" fill="none"></path></g><g transform="translate(945.5057678202535 288.15797633909756) rotate(0 69.80000305175781 12.5)"><text x="0" y="17.52" font-family="Virgil, Segoe UI Emoji" font-size="20px" fill="#1e1e1e" text-anchor="start" style="white-space: pre;" direction="ltr" dominant-baseline="alphabetic">Telegram user</text></g><g stroke-linecap="round" transform="translate(702.6527033142607 10) rotate(0 134.38720703125 64.3212890625)"><path d="M78.01 6.19 C91.38 2.17, 110.61 1.37, 127 0.84 C143.38 0.32, 160.86 0.9, 176.32 3.02 C191.77 5.15, 207.47 8.79, 219.75 13.59 C232.03 18.4, 242.14 24.98, 249.97 31.84 C257.8 38.69, 264.09 47.14, 266.74 54.74 C269.4 62.34, 269.18 69.77, 265.9 77.42 C262.63 85.07, 256.06 93.99, 247.09 100.64 C238.12 107.28, 225.28 113.08, 212.08 117.3 C198.88 121.51, 183.48 124.3, 167.89 125.95 C152.3 127.6, 134.58 128.03, 118.52 127.2 C102.46 126.37, 86.02 124.4, 71.54 120.98 C57.06 117.55, 42.37 112.48, 31.63 106.65 C20.89 100.82, 12.44 93.27, 7.1 86 C1.76 78.72, -1.07 70.9, -0.41 63.01 C0.24 55.12, 4.64 46.07, 11.04 38.65 C17.44 31.23, 24.54 24.43, 37.98 18.47 C51.43 12.52, 80.61 5.36, 91.69 2.93 C102.77 0.51, 103.73 2.73, 104.46 3.91 M105.92 1.41 C120.43 -1.05, 139.32 0.79, 155.33 1.81 C171.33 2.83, 187.65 3.82, 201.94 7.53 C216.23 11.25, 230.73 17.99, 241.07 24.09 C251.41 30.19, 259.54 36.84, 264 44.11 C268.46 51.39, 268.9 59.82, 267.81 67.73 C266.73 75.64, 264.11 84.31, 257.48 91.57 C250.86 98.83, 239.79 106.12, 228.08 111.28 C216.37 116.45, 202.45 119.52, 187.21 122.59 C171.96 125.66, 153.13 129.27, 136.6 129.71 C120.08 130.15, 102.88 127.97, 88.05 125.24 C73.21 122.51, 59.54 118.33, 47.59 113.33 C35.64 108.33, 23.97 102.25, 16.34 95.23 C8.7 88.2, 3.85 79.27, 1.78 71.18 C-0.29 63.09, 0.2 53.85, 3.92 46.69 C7.63 39.53, 14.62 34.11, 24.08 28.22 C33.54 22.34, 46.9 15.98, 60.67 11.38 C74.43 6.78, 99.09 2.13, 106.67 0.63 C114.25 -0.86, 105.72 1.21, 106.14 2.42" stroke="#000000" stroke-width="1" fill="none"></path></g><g stroke-linecap="round"><g transform="translate(950.7641822594775 106.2443092636438) rotate(287.02878852237137 -1.0738699776786689 20.094367825255176)" fill-rule="evenodd"><path d="M0 0 C-3.15 6.7, -21.7 37.98, -18.91 40.19 C-16.11 42.4, 13.61 19.95, 16.76 13.26 C19.91 6.56, 2.79 2.21, 0 0" stroke="none" stroke-width="0" fill="#fff" fill-rule="evenodd"></path><path d="M0 0 C-3.15 6.7, -21.7 37.98, -18.91 40.19 C-16.11 42.4, 13.61 19.95, 16.76 13.26 C19.91 6.56, 2.79 2.21, 0 0 M0 0 C-3.15 6.7, -21.7 37.98, -18.91 40.19 C-16.11 42.4, 13.61 19.95, 16.76 13.26 C19.91 6.56, 2.79 2.21, 0 0" stroke="#fff" stroke-width="1" fill="none"></path></g></g><mask></mask><g stroke-linecap="round"><g transform="translate(950.3820514024347 106.95314831280439) rotate(287.02878852237137 -0.29925054899570114 19.926957110969624)"><path d="M1.17 -0.49 C-1.52 6.46, -19.98 37.74, -17.19 40.65 C-14.41 43.56, 12.19 20.94, 17.88 16.99 M0.33 -1.79 C-2.39 4.92, -20.8 36.1, -17.92 38.94 C-15.05 41.78, 11.72 19.26, 17.58 15.26" stroke="#000000" stroke-width="1" fill="none"></path></g></g><mask></mask><g transform="translate(727.3020199583465 48.77388561080613) rotate(0 114.58999633789062 25)"><text x="0" y="17.52" font-family="Virgil, Segoe UI Emoji" font-size="20px" fill="#1e1e1e" text-anchor="start" style="white-space: pre;" direction="ltr" dominant-baseline="alphabetic">My good man,</text><text x="0" y="42.519999999999996" font-family="Virgil, Segoe UI Emoji" font-size="20px" fill="#1e1e1e" text-anchor="start" style="white-space: pre;" direction="ltr" dominant-baseline="alphabetic">I need your assistance</text></g><g stroke-linecap="round"><g transform="translate(691.37014434485 93.44594718434206) rotate(0 -34.96074384015856 66.52252647363503)"><path d="M0.09 0.82 C-53.8 15.45, -364.32 66.81, -322.28 88.96 C-280.25 111.11, 156.41 126.19, 252.28 133.71 M-1.32 0.21 C-55.45 14.98, -365.28 65.23, -323.16 87.15 C-281.04 109.07, 155.31 124.23, 251.39 131.71" stroke="#1e1e1e" stroke-width="2" fill="none"></path></g><g transform="translate(691.37014434485 93.44594718434206) rotate(0 -34.96074384015856 66.52252647363503)"><path d="M227.46 138.95 C238.04 136.35, 246.94 132.96, 251.39 131.71 M227.46 138.95 C235.43 135.59, 243.68 132.81, 251.39 131.71" stroke="#1e1e1e" stroke-width="2" fill="none"></path></g><g transform="translate(691.37014434485 93.44594718434206) rotate(0 -34.96074384015856 66.52252647363503)"><path d="M228.41 121.88 C238.79 125.89, 247.32 129.12, 251.39 131.71 M228.41 121.88 C236.1 124.59, 244.01 127.88, 251.39 131.71" stroke="#1e1e1e" stroke-width="2" fill="none"></path></g></g><mask></mask></svg>
